<?xml version="1.0" encoding="UTF-8"?>
<!DOCTYPE svg PUBLIC "-//W3C//DTD SVG 1.1//EN" "http://www.w3.org/Graphics/SVG/1.1/DTD/svg11.dtd">
<!-- Creator: CorelDRAW Standard 2021 (64-Bit) -->
<svg xmlns="http://www.w3.org/2000/svg" xml:space="preserve" width="9.67562in" height="9.13402in" version="1.1" style="shape-rendering:geometricPrecision; text-rendering:geometricPrecision; image-rendering:optimizeQuality; fill-rule:evenodd; clip-rule:evenodd"
viewBox="0 0 5947.92 5614.98"
 xmlns:xlink="http://www.w3.org/1999/xlink"
 xmlns:xodm="http://www.corel.com/coreldraw/odm/2003">
 <defs>
  <style type="text/css">
   <![CDATA[
    .fil8 {fill:#01050B}
    .fil0 {fill:#0BB0FE}
    .fil7 {fill:#0E1A25}
    .fil1 {fill:#0F1C25}
    .fil6 {fill:#0F1D26}
    .fil3 {fill:#101D25}
    .fil2 {fill:#F2390F}
    .fil10 {fill:#FDFDFD}
    .fil9 {fill:#FDFDFE}
    .fil5 {fill:#FDFEFE}
    .fil4 {fill:#FEBA00}
   ]]>
  </style>
 </defs>
 <g id="Layer_x0020_1">
  <metadata id="CorelCorpID_0Corel-Layer"/>
  <g id="_1581231241488">
   <path class="fil0" d="M2633.93 1942.97c-48.83,56.33 -57.83,75.42 -135.84,147.59 -155.78,144.13 -420.05,198.59 -636.36,123.09 -142.72,-49.81 -249.86,-141.75 -319.85,-235.78 -412.03,-553.57 142.65,-1307.55 783.77,-1057.49 120.23,46.89 222.94,134.59 296.58,233.73l11.7 15.22 65.65 -81c176.97,-194.41 461.37,-273.12 718.43,-184.29 70.19,24.26 128.03,58.27 182.34,99.65 44.42,33.84 101.55,96.47 134.34,139.17 234.69,305.7 157.78,756.42 -145.28,972.04 -189.1,134.54 -431.71,176.14 -651.77,81.93 -147.34,-63.07 -214.77,-134.43 -303.71,-253.87zm477.25 1231.21c-0.12,-209.1 115.79,-438.35 204.11,-565.31 111.85,-160.8 230.83,-283.98 347.85,-420.85 189.44,-221.57 152.36,-177.83 330.82,-437 53.46,-77.64 93.81,-160.44 147.12,-236.86 72.69,-104.21 147.51,44.49 217.36,101.35 -30.5,-205.58 -115.87,-447.36 -209,-597.26 -15.1,-24.3 -22.08,-42.91 -37.78,-64.92 -16.03,-22.47 -26.51,-38.08 -41.3,-60.96 -41.72,-64.49 -123.58,-157.48 -180.33,-212.35 -756.01,-731.03 -2015.92,-587.13 -2553.33,291.61 -47.16,77.11 -94.56,171.77 -128.85,263.7 -89.29,239.38 -110.22,404.7 -110.01,683.77l-6.65 1621.69 259.94 -155.46c56.02,-34.36 204.19,-135.16 268.13,-142.31 108.52,-12.14 204.31,89.12 274.9,132.97l244.58 164.44 252.32 -156.86c214.96,-139.4 247.86,-185.08 412.46,-88.85 43.8,25.61 83.91,51.82 124.69,79.98l242.91 155.14c-34.42,-156.01 -59.79,-159.24 -59.93,-355.66z"/>
   <path class="fil1" d="M3946.87 3957.3c-41.57,3.5 -108.48,-21.79 -139.12,-38.89 -173.73,-35.52 -393.41,-260.61 -467.75,-442.88 -169.17,-414.76 63.4,-707.74 276.48,-975.64l316.34 -357.99c35.81,-46.41 67.26,-83.67 101.02,-129.32l155.64 -245.05c3.23,-6.16 5.84,-12.35 8.84,-17.61 8.74,-15.36 -4.53,6.56 7.07,-11.6 1.04,-1.63 3.1,-4.32 3.98,-5.64 0.88,-1.32 2.61,-3.83 4.11,-5.58 37.13,29.28 313.42,353.15 352.25,403.17 40.07,51.61 70.52,93.59 110.83,145.34 341.66,438.66 437.08,1035.36 18.18,1448.14 -82.87,81.66 -178.47,149.23 -304.05,199.91 -120.94,48.81 -256.58,66.61 -388.4,50.3 -2.24,-0.28 -27.95,-4.94 -28.72,-5.17l-26.68 -11.5zm-835.68 -783.11c0.14,196.42 25.51,199.65 59.93,355.66l-242.91 -155.14c-40.79,-28.16 -80.89,-54.37 -124.69,-79.98 -164.61,-96.23 -197.5,-50.55 -412.46,88.85l-252.32 156.86 -244.58 -164.44c-70.58,-43.84 -166.38,-145.11 -274.9,-132.97 -63.94,7.15 -212.11,107.95 -268.13,142.31l-259.94 155.46 6.65 -1621.69c-0.22,-279.07 20.71,-444.4 110.01,-683.77 34.29,-91.93 81.69,-186.59 128.85,-263.7 537.41,-878.74 1797.33,-1022.64 2553.33,-291.61 56.75,54.88 138.61,147.87 180.33,212.35 14.79,22.87 25.27,38.48 41.3,60.96 15.7,22.01 22.68,40.62 37.78,64.92 93.14,149.9 178.5,391.68 209,597.26 -69.85,-56.86 -144.67,-205.56 -217.36,-101.35 -53.31,76.42 -93.66,159.22 -147.12,236.86 -178.46,259.17 -141.38,215.43 -330.82,437 -117.02,136.87 -235.99,260.06 -347.85,420.85 -88.32,126.96 -204.23,356.21 -204.11,565.31zm-1481.59 276.37l239.35 164.2c38.85,25.37 81.15,54.78 121.18,84.02 39.57,28.9 79.03,69.27 148.59,67.52 109.92,-2.76 479.78,-316.4 529.38,-311.4l435.68 282.53c45.92,28.79 137.43,42.33 175.38,-3.38 67.96,61.4 77.3,115.01 249.09,236.61 95.67,67.72 204.82,119.71 334.76,152.09 288.24,71.82 601.86,-7.17 787.59,-135.78 473.64,-327.97 603.39,-834.88 413.54,-1381.21 -126.61,-364.33 -465.78,-708.03 -477.44,-734.58 -42.18,-96.06 90.04,-582.74 -455.53,-1252.84 -35.76,-43.92 -81.47,-81.74 -118.69,-120.77 -44.07,-46.23 -77.61,-75.51 -132.01,-115.34 -96.87,-70.91 -187.74,-132.49 -302.65,-192.56 -460.7,-240.81 -1108.07,-250.46 -1602.92,-39.65 -435.18,185.39 -784.14,542.03 -963.49,992.38 -113.37,284.68 -129.16,499.67 -129.01,844.99l-0.08 1468.53c-0.24,141.17 -44.4,372.11 129.31,361.55 62.84,-3.82 250.78,-137.64 314.21,-175.11 99.45,-58.76 215.64,-128.34 303.77,-191.81z"/>
   <path class="fil2" d="M3807.74 3918.41l-13.39 -16.16c-37.2,-36.15 -74.78,-45.12 -134.21,-131.88 -39.61,-57.84 -71.03,-110.66 -92.08,-198.48 -68.97,-287.69 169.72,-592.44 332.49,-804.42 70.43,-91.73 119.23,-156.69 172.53,-263.7 28.12,-56.46 27.32,-79.29 48.2,-98.96l61.66 82.79c24.9,34.76 36.56,45.81 59.21,85.85 163.31,288.72 261.62,592.58 131.04,923.13 -29.72,75.24 -70.29,127.4 -111.54,186.8 -54.86,79 -182,194.91 -266.14,246.27 -12.66,7.73 -33.64,17.67 -48.64,27.67l26.68 11.5c0.77,0.23 26.48,4.9 28.72,5.17 131.82,16.31 267.46,-1.49 388.4,-50.3 125.58,-50.68 221.18,-118.25 304.05,-199.91 418.91,-412.78 323.48,-1009.48 -18.18,-1448.14 -40.31,-51.75 -70.76,-93.73 -110.83,-145.34 -38.83,-50.02 -315.12,-373.89 -352.25,-403.17 -1.51,1.75 -3.23,4.26 -4.11,5.58 -0.88,1.31 -2.94,4.01 -3.98,5.64 -11.6,18.16 1.67,-3.76 -7.07,11.6 -2.99,5.26 -5.61,11.45 -8.84,17.61l-155.64 245.05c-33.76,45.65 -65.21,82.91 -101.02,129.32l-316.34 357.99c-213.08,267.9 -445.65,560.88 -276.48,975.64 74.35,182.27 294.03,407.36 467.75,442.88z"/>
   <path class="fil3" d="M3162.58 1052.87c282.91,-29.73 508.35,211.31 531.26,464.6 25.85,285.77 -196.51,537.43 -461.96,545.86 -293.88,9.33 -518.56,-197.85 -536.55,-468.78 -20.23,-304.59 201.26,-513.73 467.25,-541.68zm-1151.76 0.59c293.51,-45.16 527.47,202.73 564.74,437.05 23.81,149.72 -46.82,304.85 -112.93,385.77 -283.46,346.97 -806.58,200.71 -880.91,-244.75 -44.94,-269.29 135.49,-532.91 429.1,-578.08zm623.11 889.52c88.94,119.43 156.37,190.79 303.71,253.87 220.06,94.21 462.68,52.61 651.77,-81.93 303.06,-215.62 379.97,-666.33 145.28,-972.04 -32.79,-42.71 -89.92,-105.33 -134.34,-139.17 -54.31,-41.38 -112.15,-75.39 -182.34,-99.65 -257.06,-88.84 -541.46,-10.12 -718.43,184.29l-65.65 81 -11.7 -15.22c-73.65,-99.15 -176.36,-186.84 -296.58,-233.73 -641.11,-250.06 -1195.8,503.92 -783.77,1057.49 69.99,94.03 177.13,185.97 319.85,235.78 216.31,75.49 480.58,21.03 636.36,-123.09 78.01,-72.17 87.01,-91.26 135.84,-147.59z"/>
   <path class="fil4" d="M3807.74 3918.41c30.64,17.1 97.55,42.39 139.12,38.89 15,-10 35.98,-19.94 48.64,-27.67 84.15,-51.36 211.28,-167.27 266.14,-246.27 41.25,-59.4 81.82,-111.55 111.54,-186.8 130.58,-330.56 32.26,-634.41 -131.04,-923.13 -22.65,-40.04 -34.31,-51.09 -59.21,-85.85l-61.66 -82.79c-20.87,19.68 -20.08,42.5 -48.2,98.96 -53.3,107.01 -102.1,171.98 -172.53,263.7 -162.77,211.99 -401.46,516.74 -332.49,804.42 21.05,87.82 52.47,140.64 92.08,198.48 59.43,86.76 97.01,95.73 134.21,131.88l13.39 16.16z"/>
   <path class="fil5" d="M2455.45 1558.57c0.7,137.42 -54.96,219.27 -161.8,251.29 -129.89,38.93 -228.37,-36.52 -267.88,-120.11 -130.99,-277.14 249.95,-438.15 367.6,-272.69 -74.61,-2.22 -132.67,49.95 -96.71,121.97 42,84.12 111.18,53.06 158.79,19.53zm-444.63 -505.12c-293.61,45.17 -474.04,308.79 -429.1,578.08 74.33,445.46 597.45,591.72 880.91,244.75 66.11,-80.92 136.73,-236.05 112.93,-385.77 -37.26,-234.33 -271.23,-482.21 -564.74,-437.05z"/>
   <path class="fil5" d="M3273.84 1560.81c11.41,281.66 -324.76,346.95 -428.83,129.48 -85.27,-178.18 85.82,-458.22 368.89,-282.68l-12.04 4.92c-1.74,0.58 -4.37,1.5 -6.34,2.1 -58.39,17.77 -114.04,44.27 -78.9,123.95 39.36,89.25 116.05,48.44 157.22,22.24zm-111.25 -507.94c-265.99,27.95 -487.47,237.1 -467.25,541.68 17.99,270.93 242.67,478.11 536.55,468.78 265.45,-8.43 487.81,-260.09 461.96,-545.86 -22.91,-253.29 -248.35,-494.33 -531.26,-464.6z"/>
   <path class="fil1" d="M2509.14 5155.88c152.13,0.13 371.75,-29.45 367.78,143.31 -4.04,175.43 -204.9,145.04 -361.67,145.2l-6.11 -288.5zm332.39 -299.67c-0.34,171.26 -182.35,137.15 -328.92,143.05l-6.09 -278.85c142.66,0.76 335.35,-30.05 335.02,135.81zm-541.51 743.97c225.3,-3.32 860.3,82.58 784.62,-348.99 -19.02,-108.49 -91.22,-175.88 -199.76,-187.16l13.08 -8.18c44.79,-24.87 48.17,-17.08 90.96,-66.85 88.26,-102.67 80.81,-272.57 -47.87,-363.6 -145.33,-102.8 -440.97,-53.08 -641.02,-64.5l-0.01 1039.28z"/>
   <path class="fil1" d="M5748.6 5325.75c0.03,72.19 -3.92,87 -57.59,111.49 -288.87,131.76 -321.15,-363.12 -133.73,-423.8 68.85,-22.29 190.98,4.77 191.22,124.48l0.1 187.83zm0.38 -390.39c-59.09,-33.44 -64.87,-71.55 -162.91,-86.22 -449.94,-67.33 -487.65,836.37 11.08,759.38 93.52,-14.44 110.51,-52.62 160.09,-93.26l0.6 85.09 190.07 -0.51 -0.31 -1069.03 -200.46 -0.03 1.83 404.58z"/>
   <path class="fil1" d="M4708.68 5153.58c4.47,-99.36 42.82,-167.46 145.38,-167.36 97.64,0.09 141.81,67.87 133.57,166.6l-278.95 0.76zm440.16 405.53l6.24 -174.31c-88.82,40.36 -145.44,80.24 -276.1,70.96 -114.39,-8.12 -155.36,-66.25 -174.04,-171.8l461.55 -0.42c19.79,-220.09 -37.61,-382.14 -211.99,-426.45 -480.35,-122.05 -563.19,511.99 -323.83,683.65 134.68,96.58 372.22,92.36 518.18,18.36z"/>
   <path class="fil1" d="M3605.43 5267.93c-5.53,89.8 2.65,131.62 -57.97,169.07 -165.42,102.19 -262.78,-89.6 -138.06,-146.24 48.88,-22.2 134.82,-25.55 196.03,-22.83zm-391.86 -361.63l0.05 164.21c76.16,-29.8 130.48,-68.19 239.99,-68.61 101.96,-0.39 155.21,45.25 150.5,149.99 -127.36,12.91 -466.09,-18.62 -441.43,284.85 14.99,184.5 244.59,228.57 393.97,111.3 22.7,-17.82 25.85,-29.78 48.97,-42.46l0.38 94.4 195.68 -0.76c-15.84,-366.04 107.2,-739.51 -296.58,-752.63 -120.4,-3.91 -198.79,30.99 -291.54,59.7z"/>
   <path class="fil1" d="M1738.18 5153.27c1.91,-96.5 42.69,-167.56 144.43,-167.35 102.23,0.21 136.16,70.44 135.24,167.24l-279.67 0.12zm436.23 412.43l8.79 -180.67c-41.08,16.06 -67.22,36.9 -119.31,52.92 -43.25,13.31 -102.5,23.27 -156.12,18.81 -118.57,-9.86 -150.92,-64.49 -174.58,-172.89l459.64 0.11c65.46,-564.9 -515.92,-526.21 -630.9,-235.31 -91.41,231.29 -14.01,554.87 338,566.06 115.34,3.67 181.94,-32.56 274.48,-49.02z"/>
   <path class="fil6" d="M209.41 5005.71l-1.11 -265.16c-13.83,-22.76 381.32,-6.15 426.59,-4.63l-2.31 -164.03 -621.75 2.56c12.11,184.17 -12.39,937.25 7.02,1012.01l177.71 -2.37c23.63,-72 -3.4,-311.14 8.86,-410.17 57.58,-17.96 306.27,-8.02 384.02,-8.24l7.79 -146.74 -345.19 1.27c-45.6,-3.14 -38.17,-9.98 -41.64,-14.49z"/>
   <path class="fil1" d="M3892.5 5367.74l1.42 188.54c124.4,72.48 483.84,118.43 543.67,-118.12 64.1,-253.44 -157.26,-277.53 -264.18,-311.86 -59.55,-19.12 -98.74,-26.39 -85.97,-106.12 44.53,-34.66 100.33,-35.31 169.85,-19.27 71.01,16.39 90.96,40.72 144.86,64.32l-1.62 -167.27c-118.12,-44.26 -272.86,-85.2 -399.33,-15.07 -120.02,66.56 -208.93,342.43 110.61,417.28 62.68,14.68 152.5,29.04 144.14,101.69 -8.54,74.14 -130.64,60.15 -191.49,46.44 -90.39,-20.38 -113.06,-55.34 -171.94,-80.55z"/>
   <path class="fil7" d="M1243.3 5002.52l-0.4 -138.78 -189.8 0.02 5.14 725.69c9.25,5.21 5.54,4.73 22.38,8.16 9.79,1.99 14.57,2.27 24.56,2.78l153.74 -1.83c1.42,-131.83 -5.01,-270.82 0.03,-401.32 4.71,-122.09 122.42,-167.49 257.37,-150.13l-2.91 -187.07c-94.61,-34.34 -174.36,4.69 -225.16,76.78 -32.46,46.06 -14.14,48.99 -44.94,65.69z"/>
   <polygon class="fil1" points="729.04,5600 932.49,5599.85 932.92,4863.4 729.05,4863.67 "/>
   <path class="fil1" d="M2455.45 1558.57c-47.61,33.52 -116.79,64.59 -158.79,-19.53 -35.96,-72.03 22.11,-124.2 96.71,-121.97 -117.65,-165.46 -498.59,-4.45 -367.6,272.69 39.51,83.59 137.98,159.04 267.88,120.11 106.84,-32.02 162.5,-113.87 161.8,-251.29z"/>
   <path class="fil1" d="M3273.84 1560.81c-41.17,26.2 -117.86,67.01 -157.22,-22.24 -35.14,-79.69 20.51,-106.18 78.9,-123.95 1.97,-0.6 4.6,-1.52 6.34,-2.1l12.04 -4.92c-283.07,-175.54 -454.16,104.5 -368.89,282.68 104.07,217.47 440.24,152.18 428.83,-129.48z"/>
   <path class="fil5" d="M5748.6 5325.75l-0.1 -187.83c-0.23,-119.71 -122.37,-146.77 -191.22,-124.48 -187.42,60.68 -155.14,555.56 133.73,423.8 53.68,-24.48 57.62,-39.3 57.59,-111.49z"/>
   <path class="fil5" d="M2515.25 5444.38c156.76,-0.16 357.63,30.24 361.67,-145.2 3.98,-172.76 -215.65,-143.18 -367.78,-143.31l6.11 288.5z"/>
   <path class="fil5" d="M2512.61 4999.26c146.58,-5.9 328.58,28.21 328.92,-143.05 0.33,-165.86 -192.36,-135.05 -335.02,-135.81l6.09 278.85z"/>
   <path class="fil1" d="M795.7 4527.13c-152.47,43.36 -86.21,267.93 75.27,222.96 146.48,-40.79 90.26,-270.03 -75.27,-222.96z"/>
   <path class="fil8" d="M209.41 5005.71c3.47,4.51 -3.96,11.35 41.64,14.49l345.19 -1.27 -7.79 146.74c-77.75,0.23 -326.45,-9.72 -384.02,8.24 -12.26,99.03 14.77,338.17 -8.86,410.17l-177.71 2.37c-19.41,-74.76 5.08,-827.84 -7.02,-1012.01l621.75 -2.56 2.31 164.03c-45.27,-1.52 -440.43,-18.14 -426.59,4.63 123.59,21.1 322.58,-15.99 436.58,12.71l0.4 -197.36c-179.61,18.16 -457.94,13.7 -645.28,6.27l1.81 1036.96 208.62 -0.06 -0.46 -417.88 400.22 -0.55 -0.37 -174.66 -400.4 -0.27z"/>
   <path class="fil9" d="M3605.43 5267.93c-61.21,-2.72 -147.15,0.64 -196.03,22.83 -124.72,56.64 -27.35,248.43 138.06,146.24 60.62,-37.46 52.44,-79.27 57.97,-169.07z"/>
   <path class="fil10" d="M4708.68 5153.58l278.95 -0.76c8.24,-98.73 -35.94,-166.51 -133.57,-166.6 -102.56,-0.1 -140.91,68 -145.38,167.36z"/>
   <path class="fil10" d="M1738.18 5153.27l279.67 -0.12c0.92,-96.8 -33.01,-167.03 -135.24,-167.24 -101.73,-0.21 -142.51,70.85 -144.43,167.35z"/>
  </g>
 </g>
</svg>
